<?xml version="1.0" standalone="no"?>
<!DOCTYPE svg PUBLIC "-//W3C//DTD SVG 20010904//EN"
 "http://www.w3.org/TR/2001/REC-SVG-20010904/DTD/svg10.dtd">
<svg version="1.0" xmlns="http://www.w3.org/2000/svg"
 width="600.000000pt" height="600.000000pt" viewBox="0 0 600.000000 600.000000"
 preserveAspectRatio="xMidYMid meet">
<metadata>
Created by potrace 1.14, written by Peter Selinger 2001-2017
</metadata>
<g transform="translate(0.000000,600.000000) scale(0.100000,-0.100000)"
fill="#000000" stroke="none">
<path d="M2800 5987 c-3 -3 -45 -8 -94 -11 -49 -4 -92 -9 -95 -10 -3 -2 -33
-7 -66 -10 -245 -28 -594 -137 -875 -274 -136 -66 -461 -269 -500 -312 -3 -3
-39 -32 -80 -65 -155 -123 -371 -352 -510 -540 -278 -377 -494 -905 -546
-1331 -3 -23 -7 -53 -9 -65 -24 -122 -24 -580 -1 -758 80 -601 331 -1146 739
-1602 129 -144 238 -244 442 -407 25 -20 197 -134 260 -172 93 -57 277 -149
396 -198 125 -52 360 -126 462 -145 15 -3 35 -8 45 -11 28 -8 178 -34 247 -42
22 -3 72 -8 110 -13 89 -10 438 -11 530 -1 39 5 99 11 135 15 35 3 67 8 70 10
4 3 26 7 105 20 137 22 369 89 520 150 17 7 46 18 65 25 141 53 467 239 620
353 174 131 373 316 491 457 30 36 56 67 59 70 9 8 74 92 90 116 8 12 42 61
76 110 316 460 495 1033 496 1584 1 170 -6 339 -16 420 -5 35 -20 144 -21 150
-1 3 -5 25 -9 50 -4 25 -17 81 -28 125 -11 44 -22 91 -24 104 -3 13 -25 84
-49 157 -175 532 -504 1013 -940 1373 -284 235 -674 445 -1020 549 -130 39
-285 77 -363 87 -20 3 -46 7 -57 10 -11 2 -40 7 -65 10 -25 3 -61 8 -80 10
-46 7 -504 17 -510 12z"/>
</g>
</svg>
